PathFileType   4   (X/Y/Z)
DataRate	CameraRate	NumFrames	NumMarkers	Units	OrigDataRate	OrigDataStartFrame	OrigNumFrames
120.0	120.0	7	37	mm	120.0	46	182
Frame#	Time	midhip	hip_r	hip_l	knee_r	knee_l	ankle_r	ankle_l	midasis	asis_r	asis_l	psis_r	psis_l	epicondLat_r	epicondLat_l	epicondMed_r	epicondMed_l	malleolusLat_r	malleolusLat_l	malleolusMedv_r	malleolusMedv_l	neck	subclavicle_r	subclavicle_l	sternalnotch	xyphoidprocess	thighwand_r	thighwand_l	upperleg1_r	upperleg1_l	upperleg2_r	upperleg2_l	shankwand_r	shankwand_l	lowerleg1_r	lowerleg1_l	toe_r	toe_l
 	 	X1	Y1	Z1	X2	Y2	Z2	X3	Y3	Z3	X4	Y4	Z4	X5	Y5	Z5	X6	Y6	Z6	X7	Y7	Z7	X8	Y8	Z8	X9	Y9	Z9	X10	Y10	Z10	X11	Y11	Z11	X12	Y12	Z12	X13	Y13	Z13	X14	Y14	Z14	X15	Y15	Z15	X16	Y16	Z16	X17	Y17	Z17	X18	Y18	Z18	X19	Y19	Z19	X20	Y20	Z20	X21	Y21	Z21	X22	Y22	Z22	X23	Y23	Z23	X24	Y24	Z24	X25	Y25	Z25	X26	Y26	Z26	X27	Y27	Z27	X28	Y28	Z28	X29	Y29	Z29	X30	Y30	Z30	X31	Y31	Z31	X32	Y32	Z32	X33	Y33	Z33	X34	Y34	Z34	X35	Y35	Z35	X36	Y36	Z36	X37	Y37	Z37

	46	0.63333	-711.870	907.183	262.679	-716.923	894.169	318.339	-714.764	890.426	211.857	-579.371	500.232	332.595	-720.047	477.934	214.674	-574.072	81.641	346.271	-808.864	68.423	236.347	-637.720	989.604	263.261	-639.835	993.272	367.588	-635.605	985.937	158.934	-838.171	1014.452	299.730	-839.307	1015.083	215.532	-576.137	503.509	391.916	-710.623	477.412	155.927	-590.355	502.759	276.777	-742.664	482.547	260.322	-580.903	82.775	383.634	-806.984	65.931	196.970	-578.874	89.355	314.145	-803.161	77.918	265.881	-745.363	1471.619	241.413	-657.474	1395.308	327.884	-654.927	1391.860	171.888	-668.292	1395.899	245.674	-648.553	1191.884	243.758	-583.347	605.060	476.076	-573.566	600.718	213.327	-578.101	669.556	404.531	-640.654	661.672	164.568	-556.388	591.346	382.936	-655.975	575.665	170.729	-573.886	163.948	449.277	-686.085	161.931	248.411	-591.830	218.514	386.246	-740.573	220.803	224.714	-456.872	75.443	336.497	-680.550	41.622	242.482
	47	0.64167	-707.778	906.697	262.223	-712.670	893.668	318.298	-710.778	889.946	211.810	-574.014	500.046	332.524	-717.645	477.504	214.761	-560.177	81.672	345.325	-808.761	68.435	236.304	-633.643	989.146	263.039	-635.497	992.792	367.366	-631.790	985.499	158.712	-833.901	1013.907	300.030	-835.530	1014.564	215.880	-570.915	503.282	391.855	-708.355	476.929	155.994	-585.948	502.342	276.847	-740.346	482.542	260.317	-566.996	82.590	382.697	-806.885	65.944	196.927	-565.224	89.240	313.293	-803.012	77.857	265.810	-741.437	1471.105	241.757	-653.422	1394.843	328.164	-650.986	1391.448	172.117	-664.301	1395.451	245.938	-644.388	1191.454	243.940	-578.600	604.771	476.091	-570.601	599.755	213.049	-573.546	669.212	404.515	-637.284	661.040	164.455	-551.814	590.977	382.896	-653.175	575.077	170.625	-561.576	163.708	448.523	-685.575	161.211	248.410	-580.577	218.020	385.544	-739.690	220.374	224.706	-442.660	76.570	335.299	-680.574	41.580	242.463
	48	0.65000	-703.606	906.287	261.639	-708.381	893.126	318.232	-706.768	889.430	211.739	-568.760	499.816	332.459	-715.163	477.051	214.898	-546.632	81.825	344.382	-808.650	68.457	236.275	-629.532	988.643	262.789	-631.112	992.264	367.110	-627.951	985.023	158.467	-829.586	1013.336	300.355	-831.803	1014.020	216.236	-565.777	503.021	391.797	-705.998	476.414	156.111	-581.556	501.841	276.898	-738.128	482.720	260.223	-553.429	82.532	381.762	-806.768	65.967	196.899	-551.623	89.347	312.352	-802.907	77.825	265.764	-737.429	1470.602	242.061	-649.355	1394.296	328.443	-646.999	1391.002	172.347	-660.276	1394.956	246.200	-640.333	1190.963	244.059	-573.864	604.437	476.108	-567.588	598.794	212.820	-569.099	668.757	404.518	-633.532	660.489	164.445	-547.283	590.537	382.839	-650.205	574.452	170.576	-549.545	163.579	447.787	-685.036	160.485	248.459	-569.587	217.604	384.887	-738.718	219.921	224.722	-428.761	77.633	334.082	-680.610	41.541	242.464
	49	0.65833	-699.488	905.743	261.104	-704.021	892.556	318.174	-702.702	888.883	211.675	-563.612	499.548	332.401	-712.567	476.580	215.087	-533.421	82.097	343.457	-808.519	68.494	236.254	-625.347	988.103	262.532	-626.639	991.701	366.857	-624.055	984.505	158.206	-825.233	1012.749	300.697	-828.012	1013.461	216.594	-560.715	502.731	391.746	-703.518	475.877	156.283	-577.565	501.118	277.169	-735.137	482.051	260.844	-540.198	82.597	380.844	-806.621	66.005	196.878	-538.233	89.647	311.450	-802.797	77.828	265.760	-733.823	1470.164	242.317	-645.729	1393.732	328.590	-643.431	1390.481	172.520	-656.679	1394.423	246.365	-636.882	1190.417	244.159	-569.109	604.064	476.124	-564.495	597.839	212.654	-564.951	668.281	404.451	-631.022	659.625	164.320	-543.001	590.094	382.779	-647.647	573.727	170.633	-537.817	163.542	447.062	-684.443	159.761	248.554	-558.853	217.303	384.297	-737.869	219.540	224.840	-415.214	78.668	332.851	-680.640	41.505	242.473
	50	0.66667	-695.469	905.044	260.558	-699.586	891.965	318.142	-698.579	888.304	211.640	-558.576	499.233	332.352	-709.858	476.088	215.317	-520.561	82.472	342.552	-808.377	68.542	236.234	-621.090	987.530	262.281	-622.078	991.117	366.622	-620.103	983.943	157.939	-820.844	1012.148	301.053	-824.198	1012.893	216.963	-555.726	502.404	391.699	-700.911	475.319	156.498	-573.772	500.326	277.546	-731.588	480.946	261.555	-527.321	82.771	379.945	-806.450	66.055	196.859	-525.246	90.060	310.620	-802.666	77.873	265.764	-730.211	1469.695	242.644	-642.042	1393.174	328.710	-639.849	1389.968	172.687	-653.046	1393.893	246.517	-633.313	1189.881	244.239	-564.320	603.654	476.133	-561.327	596.888	212.559	-560.664	667.828	404.314	-628.914	658.814	164.252	-538.746	589.632	382.737	-645.068	573.052	170.718	-526.409	163.575	446.340	-683.818	159.027	248.697	-548.386	217.113	383.672	-736.959	219.207	225.003	-402.053	79.734	331.618	-680.653	41.475	242.478
	51	0.67500	-691.259	904.454	260.218	-695.079	891.355	318.147	-694.397	887.692	211.642	-553.632	498.863	332.308	-707.047	475.572	215.576	-508.091	82.918	341.661	-808.237	68.590	236.213	-616.757	986.921	262.044	-617.426	990.511	366.405	-616.088	983.332	157.683	-816.425	1011.533	301.423	-820.225	1012.309	217.337	-550.789	502.029	391.656	-698.184	474.739	156.745	-569.052	499.736	277.569	-728.147	480.401	261.771	-514.829	83.022	379.059	-806.265	66.103	196.841	-512.564	90.600	309.760	-802.513	77.921	265.769	-725.726	1469.052	243.153	-637.294	1392.576	329.170	-635.399	1389.461	173.088	-648.458	1393.329	246.973	-628.498	1189.341	244.539	-559.480	603.201	476.131	-558.098	595.930	212.541	-555.799	667.308	404.213	-625.414	658.168	164.354	-533.939	589.105	382.688	-641.622	572.428	170.853	-515.328	163.661	445.619	-683.194	158.266	248.886	-538.244	216.971	383.038	-735.702	218.830	225.173	-389.311	80.887	330.405	-680.648	41.448	242.474
	52	0.68333	-687.022	903.901	259.784	-690.490	890.719	318.190	-690.146	887.040	211.684	-548.746	498.441	332.263	-704.158	475.030	215.854	-496.039	83.405	340.778	-808.104	68.628	236.188	-612.349	986.278	261.825	-612.686	989.884	366.206	-612.011	982.673	157.444	-811.982	1010.906	301.802	-816.313	1011.695	217.731	-545.877	501.607	391.609	-695.362	474.135	157.015	-564.186	499.168	277.483	-724.885	479.874	261.921	-502.759	83.319	378.179	-806.078	66.140	196.818	-500.351	91.197	308.882	-802.340	77.958	265.778	-721.128	1468.368	243.654	-632.515	1391.966	329.673	-630.881	1388.890	173.538	-643.819	1392.730	247.470	-623.698	1188.758	244.953	-554.583	602.703	476.111	-554.804	594.963	212.592	-551.014	666.730	404.151	-621.663	657.400	164.550	-529.080	588.556	382.587	-638.102	571.672	171.036	-504.614	163.787	444.900	-682.572	157.487	249.096	-528.396	216.860	382.451	-734.477	218.367	225.339	-377.014	82.168	329.232	-680.630	41.425	242.459
